<svg xmlns="http://www.w3.org/2000/svg" width="32px" height="32px" viewBox="0 0 24 24" fill="#5f6368" focusable="false" class="undefined a-s-fa-Ha-pa"><g stroke="none" stroke-width="1" fill-rule="evenodd"><path d="M19,2 L5,2 C3.9,2 3,2.9 3,3.99 L3,17 L21,17 L21,3.99 C21,2.89 20.11,2 19,2 L19,2 Z M3,20.01 C3,21.11 3.89,22 5,22 L19,22 C20.1,22 21,21.1 21,20.01 L21,18 L3,18 L3,20.01 L3,20.01 Z M18,19 C18.55,19 19,19.45 19,20 C19,20.55 18.55,21 18,21 C17.45,21 17,20.55 17,20 C17,19.45 17.45,19 18,19 L18,19 Z"/><path d="M0,0 L24,0 L24,24 L0,24 L0,0 Z" fill="none"/></g></svg>