<svg version="1.1" id="empty_x5F_folder" xmlns="http://www.w3.org/2000/svg" xmlns:xlink="http://www.w3.org/1999/xlink" x="0px" y="0px" viewBox="452.8 -807 930 1520" xml:space="preserve" style=""><style type="text/css">.st0{fill:#A1887F;}.st1{fill:#78909C;}.st2{opacity:0.2;}.st3{clip-path:url(#SVGID_2_);fill:#010101;}.st4{fill:#616262;}.st5{fill:#BDAAA5;}.st6{fill:#767677;}.st7{fill:#FFFFFF;}.st8{fill:#F37047;}.st9{fill:#7DB342;}.st10{fill:#CCCCCC;}.st11{fill:#8E6F64;}.st12{fill:#EE6C52;}</style><g id="roller_1_"><g><rect id="roller" x="502.2" y="605.4" transform="matrix(0.1546 -0.988 0.988 0.1546 -149.5304 1051.7065)" class="st0" width="75.1" height="15.6"/></g><path class="st1" d="M554,617.4l7.9-50.3l-13-2l-5.5,35.1c-0.1,0.8-0.9,1.4-1.7,1.2c-0.8-0.1-1.4-0.9-1.2-1.7l6-38.1l18.9,3 l-7.7,49.5L918,582.6c0.8-0.1,1.6,0.5,1.6,1.4c0.1,0.8-0.5,1.6-1.4,1.6L554,617.4z"/></g><g id="paint_x5F_bucket"><g class="st2"><g><g><g><defs><rect id="SVGID_1_" x="931.5" y="524.2" width="182.5" height="22.2"/></defs><clipPath id="SVGID_2_"><use xmlns:xlink="http://www.w3.org/1999/xlink" xlink:href="#SVGID_1_" style="overflow: visible;"/></clipPath><path class="st3" d="M1083.3,524.2c45.6,0,39.4,14.3-13,14.3c-49.7,0-43.5,7.9-95,7.9c-51.4,0-57.6-22-18.5-22 C995.9,524.3,1040.5,524.2,1083.3,524.2"/></g></g></g></g><rect x="979.4" y="481.2" class="st4" width="50.2" height="50.5"/><path class="st5" d="M985.7,481.2c5.2,0.5,8.2,7.4,8.6,11.3c0.4,3.9,3.3,10.7,9.2,9.3c5.9-1.3,10.1-15.3,16.3-10.6 c6.2,4.8,3.6,7.7,9.8,7.7v-17.8L985.7,481.2L985.7,481.2z"/><path class="st6" d="M979.2,514.5c-1.8,0-3.5-0.4-5.3-1.3c-2.3-1.1-3.8-3-4.5-5.5c-2.6-9.7,8.7-26.4,9.2-27.1 c0.3-0.5,0.9-0.6,1.4-0.3s0.6,0.9,0.3,1.4c-0.1,0.2-11.3,16.7-8.9,25.5c0.5,1.9,1.6,3.3,3.5,4.2c2.8,1.4,5.5,1.4,8.4,0.2 c11.9-5,20.3-30.5,20.4-30.8c0.2-0.5,0.7-0.8,1.3-0.6c0.5,0.2,0.8,0.7,0.6,1.3c-0.4,1.1-8.8,26.6-21.5,32 C982.3,514.2,980.7,514.5,979.2,514.5z"/></g><rect id="blank_x5F_canvas" x="486.8" y="-747.4" class="st7" width="856.3" height="1108.2"/><g id="man"><g><path class="st8" d="M1154,340.7c0,0-4.5-12.4,0-13.5s8,8.2,8,8.2L1154,340.7z"/><path class="st9" d="M1224.4,372.7l-45.9-3.3l-16.6-34.1l-11.9,7.9l13.5,35c2.3,6,7.6,10.2,14,11.2l47.2,7c0,0,6.1-2.8,6-12.2 C1230.6,374.9,1224.4,372.7,1224.4,372.7"/></g><ellipse id="shadow_x5F_man" class="st10" cx="1240.3" cy="603.9" rx="82.3" ry="10.6"/><path id="foot_x5F_left" class="st8" d="M1206.7,596.6c0,0-8.4,3.2-7.4,5.1c1.1,1.9,18,1.7,20.4,0.8c2.3-0.8,3.7-4.9,0.3-5.9 S1206.7,596.6,1206.7,596.6z"/><path id="foot_x5F_right" class="st8" d="M1247.1,596.6c0,0-2.4,3.2-1.4,5.1c1.1,1.9,14.9,1.3,17.3,0.4s0.8-4.4-2.5-5.5 C1257.1,595.6,1247.1,596.6,1247.1,596.6z"/><polygon class="st11" points="1206.7,596.6 1203.1,475.5 1261.5,472.2 1260.6,596.6 1247.4,596.6 1234.1,498.6 1220,596.6   "/><path class="st9" d="M1260.8,401.4c-7.6-25-36.4-28.6-36.4-28.6s-11.1,18-15,42.2c-3.9,24.3-4.2,40.8-7.3,61.8l63.1,4.4 C1265.2,481.2,1268.4,426.4,1260.8,401.4"/><g><path class="st8" d="M1243.7,453.9c0,0-9.7,9-12.4,5.3c-2.8-3.7,4.4-10.6,4.4-10.6L1243.7,453.9z"/><path class="st9" d="M1231.6,396.2l28.8,23.8l-24.8,28.7l12,7.8l26.8-26.2c4.6-4.5,6.4-11.1,4.8-17.2l-26-26.4c0,0-5-4.5-13.5-0.7 C1231.2,389.7,1231.6,396.2,1231.6,396.2"/></g><path class="st12" d="M1250.5,367.3c-2.8,8.8-10.4,14.3-17.1,12.2s-9.9-10.9-7.2-19.8c2.8-8.8,10.4-14.3,17.2-12.2 C1250,349.6,1253.3,358.5,1250.5,367.3"/></g></svg>